<svg id="phone" xmlns="http://www.w3.org/2000/svg" viewBox="0 0 512 512.02"><title>phone</title><path d="M280,0C408.1,0,512,103.9,512,232a24,24,0,0,1-48,0c0-101.6-82.4-184-184-184a24,24,0,0,1,0-48Zm8,192a32,32,0,1,1-32,32A32,32,0,0,1,288,192Zm-32-72a23.94,23.94,0,0,1,24-24A136,136,0,0,1,416,232a24,24,0,0,1-48,0,88,88,0,0,0-88-88A23.94,23.94,0,0,1,256,120ZM117.5,1.4a39.88,39.88,0,0,1,47.4,23.2l40,96a39.87,39.87,0,0,1-11.6,46.3L144,207.3A338,338,0,0,0,304.7,368L345,318.7a39.91,39.91,0,0,1,46.3-11.6l96,40a39.88,39.88,0,0,1,23.2,47.4l-24,88A39.91,39.91,0,0,1,448,512C200.6,512,0,311.4,0,64A40.12,40.12,0,0,1,29.5,25.4Z" transform="translate(0 0.02)" fill="#fff"/></svg>